# xmcd
#
# Track frame offsets:
#	180
#	13472
#	27156
#	40399
#	58239
#	72712
#	84702
#	107681
#	120254
#	132754
#
# Disc length: 1910
#
# Revision: 1
# Processed by: cddbd v1.5.1PL0 Copyright (c) Steve Scherf et al.
# Submitted via: dBpowerAMP V4.0
# Normalized: r0:TSWAP
#
DISCID=8d07740a
DTITLE=Various Artist - Heart And Soul
DYEAR=1900
DGENRE=
TTITLE0=Sam and Dave - How Sweet It Is To Be Loved By You
TTITLE1=Sam and Dave - Don't Pull Your Love Out On My Baby
TTITLE2=Percy Sldge - Warm And Tender Love
TTITLE3=Percy Sldge - Try A Little Tenderness
TTITLE4=Otis Redding - I've Been Loving You Too Long
TTITLE5=The Planters - I Love You A Thousand Times
TTITLE6=The Righteous Bros - Unchained Melody
TTITLE7=Percy Sldge - When A Man Loves A Women
TTITLE8=Sam Cooke - You Send Me
TTITLE9=The Platters - Only You
EXTD=
EXTT0=
EXTT1=
EXTT2=
EXTT3=
EXTT4=
EXTT5=
EXTT6=
EXTT7=
EXTT8=
EXTT9=
PLAYORDER=
